# xmcd
#
# Track frame offsets: 
#        150
#        13471
#        34788
#        50993
#        67348
#        87039
#        105046
#        131911
#        144774
#        166042
#        184556
#        201892
#        220117
#        238981
#
# Disc length: 3395 seconds
#
# Revision: 0
# Processed by: cddbd v1.5.2PL0 Copyright (c) Steve Scherf et al.
# Submitted via: ExactAudioCopy v1.2
#
DISCID=c70d410e
DTITLE=Eric Clapton - Happy Xmas
DYEAR=2018
DGENRE=Blues
TTITLE0=White Christmas
TTITLE1=Away in a Manger (Once in Royal David's City)
TTITLE2=For Love On Christmas Day
TTITLE3=Everyday Will Be Like a Holiday
TTITLE4=Christmas Tears
TTITLE5=Home for the Holidays
TTITLE6=Jingle Bells (In Memory of Avicii)
TTITLE7=Christmas in My Hometown
TTITLE8=It's Christmas
TTITLE9=Sentimental Moments
TTITLE10=Lonesome Christmas
TTITLE11=Silent Night
TTITLE12=Merry Christmas Baby
TTITLE13=Have Yourself a Merry Little Christmas
EXTD=
EXTT0=
EXTT1=
EXTT2=
EXTT3=
EXTT4=
EXTT5=
EXTT6=
EXTT7=
EXTT8=
EXTT9=
EXTT10=
EXTT11=
EXTT12=
EXTT13=
PLAYORDER=
